Coordinates
version=1
nRows=15
nColumns=42
inDegrees=yes

Units are S.I. units (second, meters, Newtons, ...)
If the header above contains a line with 'inDegrees', this indicates whether rotational values are in degrees (yes) or radians (no).

endheader
time	pelvis_tilt	pelvis_list	pelvis_rotation	pelvis_tx	pelvis_ty	pelvis_tz	hip_flexion_r	hip_adduction_r	hip_rotation_r	knee_angle_r	knee_adduction_r	knee_angle_r_beta	ankle_angle_r	subtalar_angle_r	mtp_angle_r	hip_flexion_l	hip_adduction_l	hip_rotation_l	knee_angle_l	knee_adduction_l	knee_angle_l_beta	ankle_angle_l	subtalar_angle_l	mtp_angle_l	lumbar_extension	lumbar_bending	lumbar_rotation	arm_flex_r	arm_add_r	arm_rot_r	elbow_flex_r	pro_sup_r	wrist_flex_r	wrist_dev_r	arm_flex_l	arm_add_l	arm_rot_l	elbow_flex_l	pro_sup_l	wrist_flex_l	wrist_dev_l
      1.80000000	     -1.57732028	     -6.14857955	      2.20582772	      0.73849399	      0.85492239	     -0.36739276	     12.63882511	      6.24015533	      0.93909874	     13.30034730	      8.05856489	      0.23213485	      1.14729377	     -8.99797235	     -7.50802315	      4.10110274	    -13.31351113	      0.87521766	     61.13813604	     12.66585578	      1.06706177	     -4.10459637	    -15.76861558	     -7.50802315	     -4.62847457	      9.06931601	     -4.36819388	     -7.08489077	    -13.47083300	     -2.92792418	     24.17787351	     90.00000001	      0.00000000	      0.00000000	     -9.37760195	     -9.58664036	    -11.98874033	     43.73886490	     90.00000001	      0.00000000	      0.00000000
      1.81000000	     -1.44626114	     -5.87188269	      1.97211232	      0.75025598	      0.85669553	     -0.36666286	     11.30858418	      6.08091992	      0.90672286	     12.75077896	      8.00986912	      0.22254308	      1.68987875	     -8.50213127	     -7.50791725	      5.92574774	    -13.07935830	      0.81803236	     63.37625545	     12.24987697	      1.10612433	     -3.15121348	    -16.02770541	     -7.50791725	     -4.89185365	      8.60801624	     -3.62555063	     -6.66463347	    -13.44262133	     -2.69552062	     24.21942928	     90.00000001	      0.00000000	      0.00000000	     -9.30827558	     -9.52844304	    -12.08506247	     42.78407672	     90.00000001	      0.00000000	      0.00000000
      1.82000000	     -1.80304574	     -5.82481274	      2.06000114	      0.76198506	      0.85783728	     -0.36677487	     10.23754410	      6.01198992	      1.21067995	     11.55496909	      8.07625669	      0.20167226	      2.49443536	     -7.73416623	     -7.50775127	      8.54969090	    -12.87355477	      0.58347239	     65.52973334	     11.16094558	      1.14370960	     -1.70030462	    -16.40288071	     -7.50775127	     -4.43028008	      8.51047034	     -3.38522394	     -6.21606624	    -13.57318803	     -2.22440297	     24.17699572	     90.00000001	      0.00000000	      0.00000000	     -9.11192233	     -9.26454322	    -12.32904868	     40.95841182	     90.00000001	      0.00000000	      0.00000000
      1.83000000	     -1.98991252	     -5.61158245	      1.96431936	      0.77328150	      0.85900921	     -0.36638008	      9.18290449	      5.86879034	      1.27813013	     10.75596772	      8.01106983	      0.18772705	      2.98431746	     -7.11914346	     -7.50757343	     10.87717624	    -12.55658780	      0.51112636	     67.19571357	     10.53547381	      1.17278645	     -0.27118159	    -16.26112332	     -7.50757343	     -4.30446067	      8.13912350	     -2.86938209	     -5.71832679	    -13.65260402	     -1.72431338	     24.30231402	     90.00000001	      0.00000000	      0.00000000	     -8.94168419	     -9.11636820	    -12.67711504	     39.66479656	     90.00000001	      0.00000000	      0.00000000
      1.84000000	     -2.08164057	     -5.31392679	      1.88335426	      0.78428080	      0.86017449	     -0.36611346	      8.05391108	      5.61486620	      1.24911900	      9.99699338	      7.96425940	      0.17448045	      3.46705751	     -6.49997517	     -7.50743370	     13.06048698	    -12.07324071	      0.51998710	     68.40128770	     10.02283993	      1.19382768	      1.23154499	    -16.15715518	     -7.50743370	     -4.34518593	      7.68202807	     -2.42742899	     -5.09308421	    -13.72587527	     -1.32025768	     24.50118571	     90.00000001	      0.00000000	      0.00000000	     -8.79483478	     -9.04590847	    -12.91631569	     38.53388927	     90.00000001	      0.00000000	      0.00000000
      1.85000000	     -2.30836629	     -5.00170450	      1.83064146	      0.79537836	      0.86102781	     -0.36593201	      6.98322057	      5.30310653	      1.20500399	      9.04279656	      7.96202444	      0.15782657	      3.96469562	     -5.76097663	     -7.50723565	     15.33776834	    -11.55528880	      0.55460698	     69.19431684	      9.61391028	      1.20766865	      2.77248050	    -15.66869766	     -7.50723565	     -4.16489708	      7.20084840	     -2.04618751	     -4.51044822	    -13.83660192	     -0.69895931	     24.71811821	     90.00000001	      0.00000000	      0.00000000	     -8.59473875	     -8.92003986	    -13.42056501	     37.15063284	     90.00000001	      0.00000000	      0.00000000
      1.86000000	     -2.41933242	     -4.67362599	      1.79889109	      0.80612978	      0.86178272	     -0.36578532	      5.91116903	      5.00334410	      1.07816034	      8.31644577	      7.89577381	      0.14514936	      4.43277588	     -5.12120073	     -7.50710292	     17.46292573	    -10.95350488	      0.61202192	     69.60225035	      9.23160943	      1.21478844	      4.27179195	    -15.45562623	     -7.50710292	     -4.19194919	      6.70196760	     -1.69776252	     -3.79782176	    -13.91855335	     -0.32015397	     25.00966128	     90.00000001	      0.00000000	      0.00000000	     -8.47718518	     -8.89090683	    -13.65090876	     36.13613959	     90.00000001	      0.00000000	      0.00000000
      1.87000000	     -2.55513788	     -4.30828242	      1.75419164	      0.81704113	      0.86233464	     -0.36585048	      4.78220697	      4.60408184	      1.03314518	      7.41781379	      7.90807126	      0.12946527	      4.90577134	     -4.30632667	     -7.50685341	     19.47789280	    -10.30422199	      0.79019752	     69.54503251	      9.13124260	      1.21378980	      5.64102999	    -14.72174371	     -7.50685341	     -4.13354679	      6.19572483	     -1.41644171	     -3.10819911	    -14.11995803	      0.44456967	     25.33917915	     90.00000001	      0.00000000	      0.00000000	     -8.26466705	     -8.73044338	    -14.40296320	     34.77453679	     90.00000001	      0.00000000	      0.00000000
      1.88000000	     -2.71597027	     -4.02581361	      1.71999901	      0.82778526	      0.86257342	     -0.36567351	      3.78854280	      4.33812059	      0.83928745	      6.72737175	      7.88497756	      0.11741479	      5.38251539	     -3.71040681	     -7.50672222	     21.48375537	     -9.74789989	      0.83324811	     69.15174453	      8.92364108	      1.20692563	      6.91563735	    -14.56284368	     -7.50672222	     -4.08308019	      5.73153861	     -1.12740291	     -2.35673156	    -14.19114719	      0.76953711	     25.69725323	     90.00000001	      0.00000000	      0.00000000	     -8.23248543	     -8.75885633	    -14.58142290	     33.88931067	     90.00000001	      0.00000000	      0.00000000
      1.89000000	     -2.89279366	     -3.74359359	      1.64649234	      0.83858150	      0.86258249	     -0.36549350	      2.83074260	      4.09643463	      0.63467525	      6.07503264	      7.79794625	      0.10602932	      5.86428707	     -3.10902348	     -7.50660725	     23.37173176	     -9.22354717	      0.91256484	     68.34803094	      8.90354586	      1.19289818	      7.93610121	    -14.26426962	     -7.50660725	     -3.98714078	      5.27510574	     -0.81340863	     -1.62336583	    -14.27503975	      1.08733910	     26.08218489	     90.00000001	      0.00000000	      0.00000000	     -8.20634389	     -8.76326863	    -14.83573742	     32.98719476	     90.00000001	      0.00000000	      0.00000000
      1.90000000	     -2.91127804	     -3.71033943	      1.36224112	      0.84861537	      0.86242811	     -0.36496767	      2.09600908	      4.12122376	      0.25576918	      6.14945739	      7.82069224	      0.10732828	      6.04218860	     -2.88338541	     -7.50653935	     25.12583578	     -9.17071383	      0.80337535	     67.44779438	      8.95442131	      1.17718609	      8.13056156	    -13.73007205	     -7.50653935	     -4.28032441	      5.10286907	     -0.33789955	     -0.64095522	    -14.42347249	      1.15885611	     26.64594680	     90.00000001	      0.00000000	      0.00000000	     -8.32147236	     -8.81096455	    -14.87539972	     32.84581864	     90.00000001	      0.00000000	      0.00000000
      1.91000000	     -2.87184119	     -3.14358174	      1.47403468	      0.86011052	      0.86239588	     -0.36557093	      0.49110939	      3.42036977	      0.58658524	      4.70012791	      7.93507920	      0.08203271	      6.86742515	     -1.66143784	     -7.50629425	     26.30023987	     -8.18835009	      1.31561768	     65.52082797	      9.44232193	      1.14355418	      9.53139450	    -13.81840481	     -7.50629425	     -4.27246968	      4.41867513	     -0.33252768	      0.05303571	    -14.64275294	      2.18021724	     27.02748812	     90.00000001	      0.00000000	      0.00000000	     -7.90980163	     -8.63251619	    -16.15339382	     30.89748603	     90.00000001	      0.00000000	      0.00000000
      1.92000000	     -3.03514687	     -3.11889347	      1.33193323	      0.87084765	      0.86165595	     -0.36528038	     -0.29439766	      3.49414359	      0.35339307	      4.42089961	      7.81907801	      0.07715925	      7.31629888	     -1.28995370	     -7.50619346	     27.86993716	     -8.06385016	      1.12353612	     63.75041931	      9.39883720	      1.11265472	     10.06604334	    -13.71012183	     -7.50619346	     -4.20080715	      4.26565895	     -0.06612774	      0.87883912	    -14.78300062	      2.38184754	     27.51881300	     90.00000001	      0.00000000	      0.00000000	     -8.06508955	     -8.67092888	    -16.27086057	     30.42088043	     90.00000001	      0.00000000	      0.00000000
      1.93000000	     -2.74879829	     -2.72104993	      1.16788629	      0.88184071	      0.86137939	     -0.36543433	     -1.77768746	      2.99294257	      0.51125134	      3.72553167	      7.98235635	      0.06502279	      7.89944189	     -0.56902577	     -7.50587046	     28.58456432	     -7.54234456	      1.00679770	     61.33791787	      9.68824319	      1.07054862	     10.44568069	    -14.14979753	     -7.50587046	     -4.64556234	      3.75923091	      0.18956930	      1.77749351	    -14.99617054	      3.14517838	     28.06834913	     90.00000001	      0.00000000	      0.00000000	     -7.88508104	     -8.59131227	    -17.13856952	     29.40951486	     90.00000001	      0.00000000	      0.00000000
      1.94000000	     -2.71556199	     -2.58896996	      0.93605298	      0.89272313	      0.86052000	     -0.36523175	     -2.81153166	      2.87632220	      0.55527367	      3.37033306	      7.98746086	      0.05882341	      8.45958108	     -0.05807472	     -7.50562864	     29.54990762	     -7.43326888	      0.67399761	     58.79454462	      9.83817750	      1.02615839	     10.74674016	    -14.23898472	     -7.50562864	     -4.80037707	      3.51669071	      0.51313122	      2.64412601	    -15.15822289	      3.48718951	     28.62090571	     90.00000001	      0.00000000	      0.00000000	     -7.89245925	     -8.59936169	    -17.49208796	     28.70652652	     90.00000001	      0.00000000	      0.00000000
